{
  "accessors": [
    {
      "bufferView": 2,
      "componentType": 5126,
      "count": 1260,
      "max": [
        3.7193827629089355,
        2.291987895965576,
        1.075883388519287
      ],
      "min": [
        -3.7193827629089355,
        -6.000827789306641,
        -0.9521456956863403
      ],
      "type": "VEC3"
    },
    {
      "bufferView": 2,
      "byteOffset": 15120,
      "componentType": 5126,
      "count": 1260,
      "max": [
        0.99982088804245,
        0.9955912232398987,
        0.9999748468399048
      ],
      "min": [
        -0.99982088804245,
        -0.999998927116394,
        -0.9998677968978882
      ],
      "type": "VEC3"
    },
    {
      "bufferView": 1,
      "componentType": 5126,
      "count": 1260,
      "max": [
        0.8750001788139343,
        1.0
      ],
      "min": [
        0.0,
        -1.1920928955078125e-07
      ],
      "type": "VEC2"
    },
    {
      "bufferView": 0,
      "componentType": 5125,
      "count": 6096,
      "type": "SCALAR"
    },
    {
      "bufferView": 2,
      "byteOffset": 30240,
      "componentType": 5126,
      "count": 1258,
      "max": [
        3.4730188846588135,
        2.2524447441101074,
        1.0715464353561401
      ],
      "min": [
        -3.4730188846588135,
        -6.000827789306641,
        -0.90520179271698
      ],
      "type": "VEC3"
    },
    {
      "bufferView": 2,
      "byteOffset": 45336,
      "componentType": 5126,
      "count": 1258,
      "max": [
        0.9992853403091431,
        0.996746301651001,
        0.9999595880508423
      ],
      "min": [
        -0.9992853403091431,
        -0.9990578889846802,
        -0.9974523186683655
      ],
      "type": "VEC3"
    },
    {
      "bufferView": 1,
      "byteOffset": 10080,
      "componentType": 5126,
      "count": 1258,
      "max": [
        0.8750001788139343,
        1.0
      ],
      "min": [
        0.0,
        -1.1920928955078125e-07
      ],
      "type": "VEC2"
    },
    {
      "bufferView": 0,
      "byteOffset": 24384,
      "componentType": 5125,
      "count": 6096,
      "type": "SCALAR"
    },
    {
      "bufferView": 2,
      "byteOffset": 60432,
      "componentType": 5126,
      "count": 1435,
      "max": [
        4.211528301239014,
        2.1554882526397705,
        1.2603507041931152
      ],
      "min": [
        -4.211528301239014,
        -6.01973819732666,
        -0.8191208243370056
      ],
      "type": "VEC3"
    },
    {
      "bufferView": 2,
      "byteOffset": 77652,
      "componentType": 5126,
      "count": 1435,
      "max": [
        0.9998486638069153,
        0.9965326189994812,
        0.9998949766159058
      ],
      "min": [
        -0.9998486638069153,
        -0.9994911551475525,
        -0.9999338984489441
      ],
      "type": "VEC3"
    },
    {
      "bufferView": 1,
      "byteOffset": 20144,
      "componentType": 5126,
      "count": 1435,
      "max": [
        0.8750001192092896,
        1.0
      ],
      "min": [
        0.0,
        -1.1920928955078125e-07
      ],
      "type": "VEC2"
    },
    {
      "bufferView": 0,
      "byteOffset": 48768,
      "componentType": 5125,
      "count": 7140,
      "type": "SCALAR"
    },
    {
      "bufferView": 2,
      "byteOffset": 94872,
      "componentType": 5126,
      "count": 1435,
      "max": [
        4.225599765777588,
        1.9814952611923218,
        1.2603504657745361
      ],
      "min": [
        -4.225599765777588,
        -6.022286415100098,
        -0.9388719201087952
      ],
      "type": "VEC3"
    },
    {
      "bufferView": 2,
      "byteOffset": 112092,
      "componentType": 5126,
      "count": 1435,
      "max": [
        0.9993460774421692,
        0.9959324598312378,
        0.9997795224189758
      ],
      "min": [
        -0.9993460774421692,
        -1.0,
        -0.9999219179153442
      ],
      "type": "VEC3"
    },
    {
      "bufferView": 1,
      "byteOffset": 31624,
      "componentType": 5126,
      "count": 1435,
      "max": [
        0.8750001192092896,
        1.0
      ],
      "min": [
        0.0,
        -1.1920928955078125e-07
      ],
      "type": "VEC2"
    },
    {
      "bufferView": 0,
      "byteOffset": 77328,
      "componentType": 5125,
      "count": 7140,
      "type": "SCALAR"
    }
  ],
  "asset": {
    "extras": {
      "author": "Seifert (https://sketchfab.com/Peter_Seifert)",
      "license": "CC-BY-4.0 (http://creativecommons.org/licenses/by/4.0/)",
      "source": "https://sketchfab.com/3d-models/stylized-low-poly-basemeshes-c758e7268f8b499a9bc11f399ef5000b",
      "title": "Stylized- Low poly - Basemeshes"
    },
    "generator": "Sketchfab-16.28.0",
    "version": "2.0"
  },
  "bufferViews": [
    {
      "buffer": 0,
      "byteLength": 105888,
      "name": "floatBufferViews",
      "target": 34963
    },
    {
      "buffer": 0,
      "byteLength": 43104,
      "byteOffset": 105888,
      "byteStride": 8,
      "name": "floatBufferViews",
      "target": 34962
    },
    {
      "buffer": 0,
      "byteLength": 129312,
      "byteOffset": 148992,
      "byteStride": 12,
      "name": "floatBufferViews",
      "target": 34962
    }
  ],
  "buffers": [
    {
      "byteLength": 278304,
      "uri": "scene.bin"
    }
  ],
  "materials": [
    {
      "doubleSided": true,
      "name": "FB_BB_MATERIAL",
      "pbrMetallicRoughness": {
        "baseColorFactor": [
          1.0,
          0.499492,
          0.0950946,
          1.0
        ],
        "metallicFactor": 0.0708661,
        "roughnessFactor": 0.326772
      }
    },
    {
      "doubleSided": true,
      "name": "ELF_F_SM_B_MATERIAL",
      "pbrMetallicRoughness": {
        "baseColorFactor": [
          0.800228,
          0.113074,
          0.126037,
          1.0
        ],
        "metallicFactor": 0.0866142,
        "roughnessFactor": 0.374016
      }
    },
    {
      "doubleSided": true,
      "name": "Material.001",
      "pbrMetallicRoughness": {
        "baseColorFactor": [
          0.0406633,
          0.268919,
          0.800371,
          1.0
        ],
        "metallicFactor": 0.251969,
        "roughnessFactor": 0.413386
      }
    },
    {
      "doubleSided": true,
      "name": "male_fb_b",
      "pbrMetallicRoughness": {
        "baseColorFactor": [
          0.800719,
          0.0742871,
          0.0443714,
          1.0
        ],
        "metallicFactor": 0.11811,
        "roughnessFactor": 0.34252
      }
    }
  ],
  "meshes": [
    {
      "name": "Object_0",
      "primitives": [
        {
          "attributes": {
            "NORMAL": 1,
            "POSITION": 0,
            "TEXCOORD_0": 2
          },
          "indices": 3,
          "material": 0,
          "mode": 4
        }
      ]
    },
    {
      "name": "Object_1",
      "primitives": [
        {
          "attributes": {
            "NORMAL": 5,
            "POSITION": 4,
            "TEXCOORD_0": 6
          },
          "indices": 7,
          "material": 1,
          "mode": 4
        }
      ]
    },
    {
      "name": "Object_2",
      "primitives": [
        {
          "attributes": {
            "NORMAL": 9,
            "POSITION": 8,
            "TEXCOORD_0": 10
          },
          "indices": 11,
          "material": 2,
          "mode": 4
        }
      ]
    },
    {
      "name": "Object_3",
      "primitives": [
        {
          "attributes": {
            "NORMAL": 13,
            "POSITION": 12,
            "TEXCOORD_0": 14
          },
          "indices": 15,
          "material": 3,
          "mode": 4
        }
      ]
    }
  ],
  "nodes": [
    {
      "children": [
        1
      ],
      "matrix": [
        1.0,
        0.0,
        0.0,
        0.0,
        0.0,
        2.220446049250313e-16,
        -1.0,
        0.0,
        0.0,
        1.0,
        2.220446049250313e-16,
        0.0,
        0.0,
        0.0,
        0.0,
        1.0
      ],
      "name": "Sketchfab_model"
    },
    {
      "children": [
        2
      ],
      "name": "root"
    },
    {
      "children": [
        3,
        5,
        7,
        9
      ],
      "matrix": [
        1.0,
        0.0,
        0.0,
        0.0,
        0.0,
        2.220446049250313e-16,
        1.0,
        0.0,
        0.0,
        -1.0,
        2.220446049250313e-16,
        0.0,
        0.0,
        0.0,
        0.0,
        1.0
      ],
      "name": "GLTF_SceneRootNode"
    },
    {
      "children": [
        4
      ],
      "matrix": [
        0.17013373970985413,
        0.0,
        0.0,
        0.0,
        0.0,
        0.19877701997756958,
        0.0,
        0.0,
        0.0,
        0.0,
        0.14281536638736725,
        0.0,
        -1.5119191408157349,
        1.1997168064117432,
        -0.0142764151096344,
        1.0
      ],
      "name": "ELFEBEN 2024 FEMALE_0"
    },
    {
      "mesh": 0,
      "name": "Object_4"
    },
    {
      "children": [
        6
      ],
      "matrix": [
        0.15960697829723358,
        0.0,
        0.0,
        0.0,
        0.0,
        0.18647800385951996,
        0.0,
        0.0,
        0.0,
        0.0,
        0.13397888839244843,
        0.0,
        -0.33666694164276123,
        1.1209604740142822,
        0.0505179762840271,
        1.0
      ],
      "name": "ELFEBNE 2024 FEMALE SMALL BOOB_1"
    },
    {
      "mesh": 1,
      "name": "Object_6"
    },
    {
      "children": [
        8
      ],
      "matrix": [
        0.2027529776096344,
        0.0,
        0.0,
        0.0,
        0.0,
        0.23688793182373047,
        0.0,
        0.0,
        0.0,
        0.0,
        0.17019695043563843,
        0.0,
        2.584207057952881,
        1.441341757774353,
        0.0,
        1.0
      ],
      "name": "ELFEBEN 2024  MALE_2"
    },
    {
      "mesh": 2,
      "name": "Object_8"
    },
    {
      "children": [
        10
      ],
      "matrix": [
        0.24098864197731018,
        0.0,
        0.0,
        0.0,
        0.0,
        0.28156089782714844,
        0.0,
        0.0,
        0.0,
        0.0,
        0.20229314267635345,
        0.0,
        1.0041489601135254,
        1.7002547979354858,
        0.0,
        1.0
      ],
      "name": "ELFEBEN 2024  MALE bULKY_3"
    },
    {
      "mesh": 3,
      "name": "Object_10"
    }
  ],
  "scene": 0,
  "scenes": [
    {
      "name": "Sketchfab_Scene",
      "nodes": [
        0
      ]
    }
  ]
}
